<svg xmlns="http://www.w3.org/2000/svg" xmlns:xlink="http://www.w3.org/1999/xlink" width="1920" zoomAndPan="magnify" viewBox="0 0 1440 809.999993" height="1080" preserveAspectRatio="xMidYMid meet" version="1.0"><defs><clipPath id="848a1ec075"><path d="M 170.945312 19 L 1268.945312 19 L 1268.945312 793 L 170.945312 793 Z M 170.945312 19 " clip-rule="nonzero"/></clipPath></defs><g clip-path="url(#848a1ec075)"><path fill="#000000" d="M 1220.242188 625.066406 L 1220.242188 106.777344 C 1220.242188 105.347656 1220.203125 103.921875 1220.128906 102.496094 C 1220.058594 101.070312 1219.949219 99.648438 1219.804688 98.226562 C 1219.664062 96.804688 1219.488281 95.390625 1219.273438 93.976562 C 1219.0625 92.566406 1218.816406 91.160156 1218.535156 89.757812 C 1218.253906 88.359375 1217.941406 86.96875 1217.589844 85.582031 C 1217.242188 84.199219 1216.859375 82.824219 1216.441406 81.457031 C 1216.027344 80.09375 1215.574219 78.738281 1215.09375 77.394531 C 1214.609375 76.050781 1214.09375 74.71875 1213.546875 73.402344 C 1213 72.082031 1212.417969 70.777344 1211.804688 69.488281 C 1211.195312 68.199219 1210.550781 66.925781 1209.875 65.667969 C 1209.203125 64.410156 1208.496094 63.167969 1207.761719 61.945312 C 1207.027344 60.71875 1206.261719 59.515625 1205.46875 58.328125 C 1204.671875 57.144531 1203.851562 55.976562 1203 54.832031 C 1202.148438 53.683594 1201.269531 52.5625 1200.363281 51.457031 C 1199.457031 50.355469 1198.523438 49.277344 1197.5625 48.21875 C 1196.605469 47.164062 1195.617188 46.128906 1194.609375 45.121094 C 1193.597656 44.113281 1192.5625 43.128906 1191.507812 42.171875 C 1190.449219 41.214844 1189.367188 40.28125 1188.261719 39.378906 C 1187.160156 38.472656 1186.035156 37.59375 1184.886719 36.746094 C 1183.738281 35.894531 1182.574219 35.074219 1181.386719 34.28125 C 1180.199219 33.492188 1178.992188 32.726562 1177.769531 31.996094 C 1176.542969 31.261719 1175.300781 30.558594 1174.042969 29.886719 C 1172.785156 29.214844 1171.507812 28.574219 1170.21875 27.964844 C 1168.929688 27.355469 1167.625 26.777344 1166.304688 26.230469 C 1164.988281 25.683594 1163.65625 25.171875 1162.3125 24.691406 C 1160.96875 24.210938 1159.613281 23.761719 1158.246094 23.347656 C 1156.882812 22.933594 1155.507812 22.554688 1154.121094 22.207031 C 1152.738281 21.863281 1151.34375 21.550781 1149.945312 21.273438 C 1148.546875 20.992188 1147.140625 20.75 1145.730469 20.539062 C 1144.316406 20.332031 1142.902344 20.15625 1141.480469 20.015625 C 1140.0625 19.878906 1138.636719 19.773438 1137.214844 19.703125 C 1135.789062 19.632812 1134.363281 19.597656 1132.933594 19.597656 L 306.957031 19.597656 C 305.527344 19.597656 304.101562 19.632812 302.675781 19.703125 C 301.25 19.773438 299.828125 19.878906 298.410156 20.015625 C 296.988281 20.15625 295.574219 20.332031 294.160156 20.539062 C 292.75 20.75 291.34375 20.992188 289.945312 21.273438 C 288.542969 21.550781 287.152344 21.863281 285.769531 22.207031 C 284.382812 22.554688 283.007812 22.933594 281.644531 23.347656 C 280.277344 23.761719 278.921875 24.210938 277.578125 24.691406 C 276.234375 25.171875 274.902344 25.683594 273.585938 26.230469 C 272.265625 26.777344 270.960938 27.355469 269.671875 27.964844 C 268.378906 28.574219 267.105469 29.214844 265.847656 29.886719 C 264.589844 30.558594 263.347656 31.261719 262.121094 31.996094 C 260.898438 32.726562 259.691406 33.492188 258.503906 34.28125 C 257.316406 35.074219 256.148438 35.894531 255.003906 36.746094 C 253.855469 37.59375 252.730469 38.472656 251.628906 39.378906 C 250.523438 40.28125 249.441406 41.214844 248.382812 42.171875 C 247.324219 43.128906 246.292969 44.113281 245.28125 45.121094 C 244.269531 46.128906 243.285156 47.164062 242.328125 48.21875 C 241.367188 49.277344 240.433594 50.355469 239.527344 51.457031 C 238.621094 52.5625 237.742188 53.683594 236.890625 54.832031 C 236.039062 55.976562 235.214844 57.144531 234.421875 58.328125 C 233.628906 59.515625 232.863281 60.71875 232.128906 61.945312 C 231.390625 63.167969 230.6875 64.410156 230.011719 65.667969 C 229.339844 66.925781 228.695312 68.199219 228.082031 69.488281 C 227.472656 70.777344 226.890625 72.082031 226.34375 73.402344 C 225.796875 74.71875 225.28125 76.050781 224.796875 77.394531 C 224.3125 78.738281 223.863281 80.09375 223.449219 81.457031 C 223.03125 82.824219 222.648438 84.199219 222.300781 85.582031 C 221.949219 86.96875 221.636719 88.359375 221.355469 89.757812 C 221.074219 91.160156 220.828125 92.566406 220.613281 93.976562 C 220.402344 95.390625 220.226562 96.804688 220.082031 98.226562 C 219.941406 99.648438 219.832031 101.070312 219.761719 102.496094 C 219.6875 103.921875 219.648438 105.347656 219.648438 106.777344 L 219.648438 625.066406 C 217.984375 625.277344 216.335938 625.558594 214.699219 625.917969 C 213.0625 626.273438 211.449219 626.703125 209.851562 627.207031 C 208.253906 627.710938 206.679688 628.285156 205.136719 628.929688 C 203.589844 629.574219 202.078125 630.289062 200.597656 631.070312 C 199.117188 631.851562 197.671875 632.699219 196.269531 633.613281 C 194.863281 634.523438 193.503906 635.5 192.1875 636.535156 C 190.871094 637.570312 189.605469 638.664062 188.386719 639.8125 C 187.167969 640.960938 186.003906 642.164062 184.894531 643.421875 C 183.785156 644.675781 182.734375 645.976562 181.742188 647.328125 C 180.753906 648.679688 179.824219 650.070312 178.957031 651.503906 C 178.089844 652.9375 177.292969 654.410156 176.558594 655.914062 C 175.824219 657.421875 175.160156 658.957031 174.566406 660.523438 C 173.972656 662.089844 173.449219 663.679688 173 665.292969 C 172.546875 666.90625 172.171875 668.539062 171.867188 670.1875 C 171.5625 671.832031 171.335938 673.492188 171.179688 675.160156 C 171.027344 676.828125 170.949219 678.5 170.945312 680.175781 L 170.945312 736.523438 C 170.945312 738.351562 171.035156 740.175781 171.214844 741.992188 C 171.394531 743.8125 171.660156 745.621094 172.015625 747.414062 C 172.375 749.203125 172.816406 750.976562 173.347656 752.726562 C 173.878906 754.476562 174.492188 756.195312 175.191406 757.882812 C 175.890625 759.570312 176.671875 761.222656 177.53125 762.835938 C 178.394531 764.445312 179.332031 766.011719 180.347656 767.53125 C 181.363281 769.050781 182.449219 770.519531 183.609375 771.933594 C 184.765625 773.34375 185.992188 774.699219 187.285156 775.992188 C 188.574219 777.285156 189.929688 778.507812 191.339844 779.667969 C 192.753906 780.828125 194.21875 781.917969 195.738281 782.933594 C 197.257812 783.949219 198.820312 784.886719 200.433594 785.75 C 202.042969 786.609375 203.695312 787.390625 205.382812 788.089844 C 207.070312 788.789062 208.789062 789.40625 210.535156 789.9375 C 212.285156 790.464844 214.054688 790.910156 215.847656 791.265625 C 217.640625 791.625 219.445312 791.890625 221.261719 792.070312 C 223.082031 792.25 224.902344 792.339844 226.730469 792.339844 L 1213.160156 792.339844 C 1214.988281 792.339844 1216.808594 792.25 1218.628906 792.070312 C 1220.445312 791.890625 1222.25 791.625 1224.042969 791.265625 C 1225.835938 790.910156 1227.605469 790.464844 1229.351562 789.9375 C 1231.101562 789.40625 1232.820312 788.789062 1234.507812 788.089844 C 1236.195312 787.390625 1237.84375 786.609375 1239.457031 785.75 C 1241.066406 784.886719 1242.632812 783.949219 1244.152344 782.933594 C 1245.671875 781.917969 1247.136719 780.828125 1248.550781 779.667969 C 1249.960938 778.507812 1251.3125 777.285156 1252.605469 775.992188 C 1253.898438 774.699219 1255.121094 773.34375 1256.28125 771.933594 C 1257.441406 770.519531 1258.527344 769.050781 1259.542969 767.53125 C 1260.558594 766.011719 1261.496094 764.445312 1262.359375 762.835938 C 1263.21875 761.222656 1264 759.570312 1264.699219 757.882812 C 1265.398438 756.195312 1266.011719 754.476562 1266.542969 752.726562 C 1267.074219 750.976562 1267.515625 749.203125 1267.871094 747.414062 C 1268.230469 745.621094 1268.496094 743.8125 1268.675781 741.992188 C 1268.855469 740.175781 1268.945312 738.351562 1268.945312 736.523438 L 1268.945312 679.820312 C 1268.929688 678.152344 1268.84375 676.488281 1268.679688 674.828125 C 1268.515625 673.167969 1268.277344 671.519531 1267.96875 669.878906 C 1267.65625 668.242188 1267.269531 666.621094 1266.8125 665.015625 C 1266.355469 663.410156 1265.828125 661.832031 1265.230469 660.273438 C 1264.628906 658.71875 1263.960938 657.191406 1263.226562 655.695312 C 1262.488281 654.199219 1261.6875 652.738281 1260.820312 651.3125 C 1259.949219 649.890625 1259.019531 648.507812 1258.027344 647.167969 C 1257.035156 645.828125 1255.988281 644.53125 1254.878906 643.285156 C 1253.769531 642.039062 1252.609375 640.847656 1251.390625 639.707031 C 1250.175781 638.5625 1248.910156 637.480469 1247.597656 636.453125 C 1246.285156 635.425781 1244.929688 634.457031 1243.527344 633.550781 C 1242.128906 632.644531 1240.691406 631.804688 1239.214844 631.027344 C 1237.738281 630.253906 1236.230469 629.542969 1234.691406 628.902344 C 1233.152344 628.261719 1231.589844 627.691406 1229.996094 627.191406 C 1228.40625 626.695312 1226.796875 626.265625 1225.167969 625.910156 C 1223.539062 625.554688 1221.898438 625.273438 1220.242188 625.066406 Z M 306.957031 55.035156 L 1132.933594 55.035156 C 1134.628906 55.035156 1136.320312 55.121094 1138.007812 55.285156 C 1139.695312 55.449219 1141.371094 55.699219 1143.035156 56.03125 C 1144.699219 56.359375 1146.34375 56.769531 1147.964844 57.261719 C 1149.589844 57.753906 1151.183594 58.324219 1152.75 58.972656 C 1154.316406 59.621094 1155.851562 60.34375 1157.347656 61.140625 C 1158.84375 61.9375 1160.296875 62.808594 1161.707031 63.75 C 1163.117188 64.691406 1164.480469 65.699219 1165.792969 66.773438 C 1167.105469 67.847656 1168.363281 68.980469 1169.5625 70.179688 C 1170.765625 71.378906 1171.902344 72.632812 1172.980469 73.941406 C 1174.0625 75.25 1175.074219 76.609375 1176.015625 78.019531 C 1176.960938 79.425781 1177.835938 80.878906 1178.640625 82.371094 C 1179.441406 83.867188 1180.171875 85.398438 1180.824219 86.964844 C 1181.476562 88.527344 1182.050781 90.121094 1182.546875 91.746094 C 1183.042969 93.367188 1183.460938 95.011719 1183.796875 96.671875 C 1184.132812 98.335938 1184.386719 100.011719 1184.558594 101.699219 C 1184.730469 103.386719 1184.816406 105.082031 1184.824219 106.777344 L 1184.824219 624.359375 L 1141.964844 624.359375 L 1141.964844 122.546875 C 1141.964844 121.964844 1141.9375 121.386719 1141.882812 120.808594 C 1141.824219 120.234375 1141.738281 119.660156 1141.625 119.089844 C 1141.511719 118.519531 1141.371094 117.957031 1141.203125 117.402344 C 1141.035156 116.847656 1140.839844 116.300781 1140.617188 115.765625 C 1140.394531 115.230469 1140.148438 114.707031 1139.875 114.195312 C 1139.601562 113.683594 1139.304688 113.183594 1138.980469 112.703125 C 1138.660156 112.21875 1138.3125 111.753906 1137.945312 111.304688 C 1137.578125 110.855469 1137.191406 110.429688 1136.78125 110.015625 C 1136.371094 109.605469 1135.941406 109.21875 1135.492188 108.851562 C 1135.042969 108.480469 1134.578125 108.136719 1134.097656 107.8125 C 1133.613281 107.492188 1133.117188 107.195312 1132.605469 106.921875 C 1132.09375 106.644531 1131.570312 106.398438 1131.035156 106.175781 C 1130.5 105.953125 1129.953125 105.757812 1129.398438 105.589844 C 1128.84375 105.421875 1128.28125 105.28125 1127.710938 105.167969 C 1127.144531 105.054688 1126.570312 104.96875 1125.992188 104.914062 C 1125.414062 104.855469 1124.835938 104.828125 1124.257812 104.828125 L 315.632812 104.828125 C 315.054688 104.828125 314.472656 104.855469 313.898438 104.914062 C 313.320312 104.96875 312.746094 105.054688 312.179688 105.167969 C 311.609375 105.28125 311.046875 105.421875 310.492188 105.589844 C 309.9375 105.757812 309.390625 105.953125 308.855469 106.175781 C 308.320312 106.398438 307.796875 106.644531 307.285156 106.921875 C 306.773438 107.195312 306.277344 107.492188 305.792969 107.8125 C 305.3125 108.136719 304.847656 108.480469 304.398438 108.851562 C 303.949219 109.21875 303.519531 109.605469 303.109375 110.015625 C 302.699219 110.429688 302.3125 110.855469 301.941406 111.304688 C 301.574219 111.753906 301.230469 112.21875 300.90625 112.703125 C 300.585938 113.183594 300.289062 113.683594 300.015625 114.195312 C 299.742188 114.707031 299.492188 115.230469 299.269531 115.765625 C 299.050781 116.300781 298.855469 116.847656 298.6875 117.402344 C 298.515625 117.957031 298.375 118.519531 298.261719 119.089844 C 298.152344 119.660156 298.066406 120.234375 298.007812 120.808594 C 297.953125 121.386719 297.921875 121.964844 297.921875 122.546875 L 297.921875 624.359375 L 255.066406 624.359375 L 255.066406 106.777344 C 255.070312 105.082031 255.160156 103.386719 255.332031 101.699219 C 255.503906 100.011719 255.757812 98.335938 256.09375 96.671875 C 256.429688 95.011719 256.84375 93.367188 257.34375 91.746094 C 257.839844 90.125 258.414062 88.527344 259.066406 86.964844 C 259.71875 85.398438 260.445312 83.867188 261.25 82.371094 C 262.054688 80.878906 262.925781 79.425781 263.871094 78.019531 C 264.816406 76.609375 265.828125 75.25 266.90625 73.941406 C 267.984375 72.632812 269.125 71.378906 270.328125 70.179688 C 271.527344 68.980469 272.785156 67.847656 274.097656 66.773438 C 275.410156 65.699219 276.769531 64.691406 278.183594 63.75 C 279.59375 62.808594 281.046875 61.9375 282.542969 61.140625 C 284.039062 60.34375 285.570312 59.621094 287.140625 58.972656 C 288.707031 58.324219 290.300781 57.753906 291.925781 57.261719 C 293.546875 56.769531 295.191406 56.359375 296.855469 56.03125 C 298.515625 55.699219 300.191406 55.449219 301.878906 55.285156 C 303.566406 55.121094 305.257812 55.035156 306.957031 55.035156 Z M 333.34375 624.359375 L 333.34375 140.265625 L 1106.546875 140.265625 L 1106.546875 624.359375 Z M 856.839844 659.796875 C 856.742188 660.707031 856.605469 661.609375 856.425781 662.503906 C 856.246094 663.402344 856.023438 664.289062 855.765625 665.164062 C 855.503906 666.039062 855.203125 666.902344 854.863281 667.75 C 854.523438 668.597656 854.144531 669.429688 853.730469 670.242188 C 853.3125 671.054688 852.859375 671.847656 852.371094 672.621094 C 851.882812 673.394531 851.363281 674.140625 850.804688 674.867188 C 850.246094 675.589844 849.660156 676.289062 849.039062 676.957031 C 848.417969 677.628906 847.769531 678.269531 847.089844 678.878906 C 846.410156 679.492188 845.703125 680.070312 844.972656 680.617188 C 844.238281 681.164062 843.484375 681.675781 842.703125 682.152344 C 841.925781 682.628906 841.125 683.070312 840.304688 683.472656 C 839.488281 683.875 838.652344 684.242188 837.796875 684.570312 C 836.945312 684.894531 836.078125 685.183594 835.199219 685.429688 C 834.320312 685.679688 833.433594 685.886719 832.535156 686.054688 C 831.636719 686.21875 830.730469 686.34375 829.824219 686.429688 C 828.914062 686.511719 828 686.554688 827.089844 686.554688 L 612.625 686.554688 C 611.714844 686.554688 610.804688 686.511719 609.898438 686.425781 C 608.988281 686.34375 608.089844 686.21875 607.195312 686.050781 C 606.296875 685.882812 605.410156 685.675781 604.535156 685.425781 C 603.660156 685.175781 602.796875 684.890625 601.945312 684.5625 C 601.097656 684.234375 600.261719 683.867188 599.445312 683.464844 C 598.628906 683.058594 597.835938 682.617188 597.058594 682.140625 C 596.28125 681.664062 595.53125 681.152344 594.800781 680.605469 C 594.074219 680.058594 593.371094 679.476562 592.695312 678.867188 C 592.019531 678.253906 591.371094 677.613281 590.753906 676.945312 C 590.140625 676.273438 589.554688 675.574219 589 674.851562 C 588.449219 674.125 587.929688 673.378906 587.445312 672.605469 C 586.960938 671.835938 586.515625 671.042969 586.101562 670.226562 C 585.691406 669.414062 585.316406 668.585938 584.984375 667.738281 C 584.648438 666.890625 584.351562 666.027344 584.097656 665.152344 C 583.839844 664.277344 583.625 663.394531 583.449219 662.5 C 583.273438 661.605469 583.140625 660.703125 583.050781 659.796875 Z M 1233.527344 736.523438 C 1233.527344 737.191406 1233.492188 737.855469 1233.425781 738.519531 C 1233.363281 739.183594 1233.265625 739.84375 1233.132812 740.5 C 1233.003906 741.152344 1232.84375 741.800781 1232.648438 742.4375 C 1232.453125 743.078125 1232.230469 743.703125 1231.976562 744.320312 C 1231.71875 744.9375 1231.433594 745.539062 1231.121094 746.128906 C 1230.804688 746.71875 1230.464844 747.289062 1230.09375 747.84375 C 1229.722656 748.398438 1229.324219 748.933594 1228.902344 749.449219 C 1228.480469 749.964844 1228.03125 750.460938 1227.558594 750.933594 C 1227.089844 751.402344 1226.59375 751.851562 1226.078125 752.273438 C 1225.5625 752.699219 1225.027344 753.09375 1224.472656 753.464844 C 1223.917969 753.835938 1223.347656 754.179688 1222.761719 754.492188 C 1222.171875 754.808594 1221.570312 755.09375 1220.953125 755.347656 C 1220.335938 755.605469 1219.710938 755.828125 1219.070312 756.023438 C 1218.433594 756.214844 1217.785156 756.378906 1217.132812 756.507812 C 1216.476562 756.640625 1215.820312 756.738281 1215.15625 756.800781 C 1214.492188 756.867188 1213.828125 756.898438 1213.160156 756.898438 L 226.730469 756.898438 C 226.0625 756.898438 225.398438 756.867188 224.734375 756.800781 C 224.070312 756.738281 223.410156 756.640625 222.757812 756.507812 C 222.101562 756.378906 221.457031 756.214844 220.820312 756.023438 C 220.179688 755.828125 219.554688 755.605469 218.9375 755.347656 C 218.320312 755.09375 217.71875 754.808594 217.128906 754.492188 C 216.542969 754.179688 215.96875 753.835938 215.414062 753.464844 C 214.859375 753.09375 214.324219 752.699219 213.808594 752.273438 C 213.292969 751.851562 212.800781 751.402344 212.328125 750.933594 C 211.859375 750.460938 211.410156 749.964844 210.988281 749.449219 C 210.5625 748.933594 210.167969 748.398438 209.796875 747.84375 C 209.425781 747.289062 209.082031 746.71875 208.769531 746.128906 C 208.453125 745.539062 208.167969 744.9375 207.914062 744.320312 C 207.660156 743.703125 207.433594 743.078125 207.242188 742.4375 C 207.046875 741.800781 206.886719 741.152344 206.753906 740.5 C 206.625 739.84375 206.527344 739.183594 206.460938 738.519531 C 206.398438 737.855469 206.363281 737.191406 206.363281 736.523438 L 206.363281 679.820312 C 206.363281 679.152344 206.398438 678.488281 206.460938 677.824219 C 206.527344 677.160156 206.625 676.5 206.753906 675.84375 C 206.886719 675.191406 207.046875 674.542969 207.242188 673.90625 C 207.433594 673.265625 207.660156 672.640625 207.914062 672.023438 C 208.167969 671.40625 208.453125 670.804688 208.769531 670.214844 C 209.082031 669.625 209.425781 669.054688 209.796875 668.5 C 210.167969 667.945312 210.5625 667.410156 210.988281 666.894531 C 211.410156 666.378906 211.859375 665.882812 212.328125 665.414062 C 212.800781 664.941406 213.292969 664.492188 213.808594 664.070312 C 214.324219 663.644531 214.859375 663.25 215.414062 662.878906 C 215.96875 662.507812 216.542969 662.164062 217.128906 661.851562 C 217.71875 661.535156 218.320312 661.25 218.9375 660.996094 C 219.554688 660.738281 220.179688 660.515625 220.820312 660.320312 C 221.457031 660.128906 222.101562 659.964844 222.757812 659.835938 C 223.410156 659.707031 224.070312 659.605469 224.734375 659.542969 C 225.398438 659.476562 226.0625 659.445312 226.730469 659.445312 L 547.628906 659.445312 C 547.730469 661.511719 547.929688 663.566406 548.226562 665.613281 C 548.519531 667.664062 548.914062 669.691406 549.402344 671.703125 C 549.890625 673.714844 550.472656 675.695312 551.148438 677.652344 C 551.828125 679.605469 552.59375 681.523438 553.453125 683.40625 C 554.3125 685.289062 555.257812 687.125 556.289062 688.917969 C 557.324219 690.710938 558.4375 692.449219 559.636719 694.136719 C 560.835938 695.824219 562.109375 697.449219 563.464844 699.015625 C 564.816406 700.578125 566.238281 702.078125 567.734375 703.507812 C 569.226562 704.9375 570.785156 706.292969 572.410156 707.574219 C 574.03125 708.855469 575.710938 710.058594 577.449219 711.183594 C 579.1875 712.304688 580.972656 713.34375 582.808594 714.292969 C 584.644531 715.246094 586.519531 716.109375 588.4375 716.886719 C 590.355469 717.660156 592.304688 718.34375 594.289062 718.929688 C 596.269531 719.519531 598.277344 720.015625 600.304688 720.414062 C 602.335938 720.8125 604.378906 721.113281 606.4375 721.320312 C 608.492188 721.523438 610.554688 721.628906 612.625 721.640625 L 827.089844 721.640625 C 829.160156 721.636719 831.226562 721.535156 833.289062 721.335938 C 835.351562 721.132812 837.398438 720.835938 839.433594 720.441406 C 841.464844 720.046875 843.476562 719.558594 845.464844 718.972656 C 847.449219 718.386719 849.40625 717.707031 851.328125 716.933594 C 853.25 716.164062 855.132812 715.300781 856.972656 714.351562 C 858.8125 713.398438 860.605469 712.363281 862.347656 711.242188 C 864.089844 710.121094 865.773438 708.917969 867.402344 707.636719 C 869.03125 706.355469 870.59375 705 872.09375 703.566406 C 873.589844 702.136719 875.019531 700.640625 876.375 699.074219 C 877.734375 697.507812 879.011719 695.878906 880.214844 694.191406 C 881.414062 692.503906 882.535156 690.761719 883.570312 688.964844 C 884.609375 687.171875 885.558594 685.332031 886.417969 683.445312 C 887.28125 681.5625 888.050781 679.640625 888.730469 677.683594 C 889.40625 675.722656 889.992188 673.738281 890.484375 671.722656 C 890.972656 669.710938 891.367188 667.675781 891.664062 665.625 C 891.960938 663.574219 892.160156 661.515625 892.261719 659.445312 L 1213.160156 659.445312 C 1213.832031 659.445312 1214.507812 659.476562 1215.179688 659.542969 C 1215.847656 659.609375 1216.515625 659.710938 1217.175781 659.84375 C 1217.835938 659.976562 1218.492188 660.140625 1219.136719 660.339844 C 1219.78125 660.539062 1220.414062 660.765625 1221.035156 661.027344 C 1221.65625 661.289062 1222.265625 661.578125 1222.859375 661.902344 C 1223.453125 662.222656 1224.027344 662.574219 1224.585938 662.949219 C 1225.144531 663.328125 1225.683594 663.734375 1226.199219 664.167969 C 1226.71875 664.597656 1227.214844 665.054688 1227.6875 665.535156 C 1228.160156 666.019531 1228.609375 666.523438 1229.03125 667.046875 C 1229.453125 667.574219 1229.847656 668.117188 1230.21875 668.683594 C 1230.585938 669.25 1230.925781 669.832031 1231.238281 670.429688 C 1231.546875 671.027344 1231.828125 671.640625 1232.078125 672.269531 C 1232.328125 672.894531 1232.546875 673.53125 1232.734375 674.179688 C 1232.917969 674.828125 1233.074219 675.484375 1233.195312 676.148438 C 1233.316406 676.8125 1233.40625 677.480469 1233.460938 678.15625 C 1233.515625 678.828125 1233.539062 679.5 1233.527344 680.175781 Z M 1233.527344 736.523438 " fill-opacity="1" fill-rule="nonzero"/></g><path fill="#000000" d="M 1024.375 688.503906 C 1023.867188 688.785156 1023.375 689.089844 1022.894531 689.421875 C 1022.417969 689.75 1021.957031 690.101562 1021.515625 690.476562 C 1021.070312 690.851562 1020.648438 691.25 1020.246094 691.664062 C 1019.839844 692.082031 1019.457031 692.515625 1019.097656 692.972656 C 1018.734375 693.425781 1018.394531 693.898438 1018.082031 694.382812 C 1017.765625 694.871094 1017.476562 695.375 1017.210938 695.890625 C 1016.945312 696.40625 1016.703125 696.933594 1016.492188 697.472656 C 1016.277344 698.011719 1016.089844 698.5625 1015.929688 699.121094 C 1015.769531 699.679688 1015.636719 700.242188 1015.53125 700.816406 C 1015.429688 701.386719 1015.351562 701.960938 1015.304688 702.539062 C 1015.257812 703.117188 1015.238281 703.699219 1015.246094 704.277344 C 1015.253906 704.859375 1015.292969 705.4375 1015.359375 706.015625 C 1015.421875 706.589844 1015.515625 707.164062 1015.640625 707.730469 C 1015.761719 708.300781 1015.910156 708.859375 1016.089844 709.414062 C 1016.265625 709.964844 1016.46875 710.507812 1016.699219 711.042969 C 1016.929688 711.574219 1017.1875 712.09375 1017.46875 712.601562 C 1018.230469 713.957031 1019.152344 715.191406 1020.238281 716.304688 C 1021.324219 717.414062 1022.535156 718.367188 1023.871094 719.160156 C 1025.210938 719.953125 1026.625 720.5625 1028.121094 720.980469 C 1029.617188 721.402344 1031.144531 721.621094 1032.699219 721.640625 C 1035.792969 721.628906 1038.683594 720.863281 1041.375 719.335938 C 1041.886719 719.042969 1042.378906 718.730469 1042.859375 718.390625 C 1043.335938 718.050781 1043.796875 717.6875 1044.238281 717.304688 C 1044.683594 716.921875 1045.105469 716.515625 1045.507812 716.089844 C 1045.914062 715.664062 1046.292969 715.21875 1046.652344 714.753906 C 1047.011719 714.292969 1047.351562 713.8125 1047.664062 713.316406 C 1047.976562 712.820312 1048.261719 712.308594 1048.523438 711.785156 C 1048.789062 711.257812 1049.023438 710.722656 1049.234375 710.175781 C 1049.441406 709.625 1049.625 709.070312 1049.78125 708.503906 C 1049.9375 707.9375 1050.0625 707.367188 1050.164062 706.789062 C 1050.261719 706.210938 1050.332031 705.628906 1050.375 705.042969 C 1050.417969 704.457031 1050.429688 703.871094 1050.414062 703.285156 C 1050.398438 702.699219 1050.355469 702.113281 1050.28125 701.53125 C 1050.210938 700.949219 1050.109375 700.371094 1049.980469 699.800781 C 1049.847656 699.226562 1049.691406 698.664062 1049.507812 698.105469 C 1049.324219 697.546875 1049.109375 697 1048.871094 696.464844 C 1048.632812 695.929688 1048.371094 695.40625 1048.082031 694.894531 C 1047.789062 694.386719 1047.476562 693.890625 1047.136719 693.414062 C 1046.800781 692.933594 1046.4375 692.472656 1046.054688 692.027344 C 1045.671875 691.582031 1045.269531 691.160156 1044.84375 690.753906 C 1044.417969 690.351562 1043.972656 689.96875 1043.511719 689.609375 C 1043.046875 689.246094 1042.570312 688.910156 1042.074219 688.597656 C 1041.578125 688.285156 1041.066406 687.996094 1040.542969 687.730469 C 1040.019531 687.46875 1039.484375 687.230469 1038.9375 687.019531 C 1038.390625 686.808594 1037.832031 686.625 1037.269531 686.46875 C 1036.703125 686.3125 1036.132812 686.183594 1035.554688 686.085938 C 1034.976562 685.984375 1034.394531 685.914062 1033.808594 685.871094 C 1033.226562 685.828125 1032.640625 685.8125 1032.054688 685.828125 C 1031.464844 685.84375 1030.882812 685.886719 1030.300781 685.957031 C 1029.71875 686.027344 1029.140625 686.128906 1028.570312 686.257812 C 1027.996094 686.386719 1027.433594 686.542969 1026.875 686.726562 C 1026.320312 686.910156 1025.773438 687.121094 1025.234375 687.359375 C 1024.699219 687.597656 1024.175781 687.859375 1023.664062 688.148438 Z M 1024.375 688.503906 " fill-opacity="1" fill-rule="nonzero"/><path fill="#000000" d="M 1088.484375 688.503906 C 1087.976562 688.785156 1087.484375 689.089844 1087.003906 689.421875 C 1086.527344 689.75 1086.066406 690.101562 1085.625 690.476562 C 1085.179688 690.851562 1084.757812 691.25 1084.351562 691.664062 C 1083.949219 692.082031 1083.566406 692.515625 1083.203125 692.972656 C 1082.84375 693.425781 1082.503906 693.898438 1082.191406 694.382812 C 1081.875 694.871094 1081.585938 695.375 1081.320312 695.890625 C 1081.054688 696.40625 1080.8125 696.933594 1080.597656 697.472656 C 1080.386719 698.011719 1080.199219 698.5625 1080.039062 699.121094 C 1079.878906 699.679688 1079.746094 700.242188 1079.640625 700.816406 C 1079.539062 701.386719 1079.460938 701.960938 1079.414062 702.539062 C 1079.367188 703.117188 1079.347656 703.699219 1079.355469 704.277344 C 1079.363281 704.859375 1079.402344 705.4375 1079.464844 706.015625 C 1079.53125 706.589844 1079.625 707.164062 1079.75 707.730469 C 1079.871094 708.300781 1080.019531 708.859375 1080.195312 709.414062 C 1080.375 709.964844 1080.578125 710.507812 1080.808594 711.042969 C 1081.039062 711.574219 1081.296875 712.09375 1081.578125 712.601562 C 1081.863281 713.105469 1082.171875 713.59375 1082.503906 714.070312 C 1082.835938 714.542969 1083.191406 715 1083.570312 715.4375 C 1083.945312 715.878906 1084.34375 716.296875 1084.761719 716.699219 C 1085.179688 717.097656 1085.617188 717.476562 1086.074219 717.832031 C 1086.53125 718.191406 1087.003906 718.523438 1087.492188 718.835938 C 1087.980469 719.144531 1088.480469 719.433594 1089 719.695312 C 1089.515625 719.957031 1090.042969 720.191406 1090.582031 720.402344 C 1091.121094 720.609375 1091.671875 720.792969 1092.226562 720.949219 C 1092.785156 721.105469 1093.347656 721.234375 1093.917969 721.332031 C 1094.488281 721.433594 1095.0625 721.507812 1095.640625 721.550781 C 1096.21875 721.59375 1096.796875 721.609375 1097.375 721.597656 C 1097.953125 721.585938 1098.53125 721.546875 1099.105469 721.476562 C 1099.679688 721.40625 1100.25 721.308594 1100.816406 721.183594 C 1101.378906 721.058594 1101.9375 720.90625 1102.488281 720.726562 C 1103.039062 720.546875 1103.578125 720.34375 1104.109375 720.109375 C 1104.640625 719.875 1105.15625 719.617188 1105.660156 719.335938 C 1106.171875 719.042969 1106.664062 718.730469 1107.144531 718.390625 C 1107.621094 718.050781 1108.082031 717.691406 1108.527344 717.304688 C 1108.96875 716.921875 1109.390625 716.515625 1109.796875 716.089844 C 1110.199219 715.664062 1110.582031 715.21875 1110.941406 714.753906 C 1111.300781 714.292969 1111.636719 713.8125 1111.949219 713.316406 C 1112.261719 712.820312 1112.546875 712.308594 1112.8125 711.785156 C 1113.074219 711.257812 1113.308594 710.722656 1113.519531 710.175781 C 1113.730469 709.625 1113.910156 709.070312 1114.066406 708.503906 C 1114.222656 707.9375 1114.351562 707.367188 1114.449219 706.789062 C 1114.546875 706.210938 1114.617188 705.628906 1114.660156 705.042969 C 1114.703125 704.457031 1114.714844 703.871094 1114.699219 703.285156 C 1114.683594 702.699219 1114.640625 702.113281 1114.566406 701.53125 C 1114.496094 700.949219 1114.394531 700.371094 1114.265625 699.800781 C 1114.136719 699.226562 1113.976562 698.664062 1113.792969 698.105469 C 1113.609375 697.546875 1113.398438 697.003906 1113.160156 696.464844 C 1112.921875 695.929688 1112.65625 695.40625 1112.367188 694.898438 C 1112.078125 694.386719 1111.761719 693.890625 1111.425781 693.414062 C 1111.085938 692.933594 1110.726562 692.472656 1110.34375 692.027344 C 1109.957031 691.582031 1109.554688 691.160156 1109.128906 690.753906 C 1108.703125 690.351562 1108.261719 689.96875 1107.796875 689.609375 C 1107.335938 689.246094 1106.855469 688.910156 1106.359375 688.597656 C 1105.863281 688.285156 1105.355469 687.996094 1104.832031 687.730469 C 1104.304688 687.46875 1103.769531 687.230469 1103.222656 687.019531 C 1102.675781 686.808594 1102.121094 686.625 1101.554688 686.46875 C 1100.988281 686.3125 1100.417969 686.183594 1099.839844 686.085938 C 1099.261719 685.984375 1098.679688 685.914062 1098.09375 685.871094 C 1097.511719 685.828125 1096.925781 685.8125 1096.339844 685.828125 C 1095.753906 685.84375 1095.167969 685.886719 1094.585938 685.957031 C 1094.003906 686.027344 1093.425781 686.128906 1092.855469 686.257812 C 1092.28125 686.386719 1091.71875 686.542969 1091.160156 686.726562 C 1090.605469 686.910156 1090.058594 687.121094 1089.523438 687.359375 C 1088.984375 687.597656 1088.460938 687.859375 1087.953125 688.148438 Z M 1088.484375 688.503906 " fill-opacity="1" fill-rule="nonzero"/><path fill="#000000" d="M 1152.0625 688.859375 C 1151.558594 689.15625 1151.074219 689.480469 1150.605469 689.828125 C 1150.136719 690.175781 1149.6875 690.546875 1149.253906 690.9375 C 1148.820312 691.332031 1148.410156 691.742188 1148.015625 692.175781 C 1147.625 692.609375 1147.257812 693.0625 1146.910156 693.53125 C 1146.5625 694 1146.238281 694.484375 1145.941406 694.988281 C 1145.640625 695.488281 1145.367188 696.003906 1145.117188 696.53125 C 1144.871094 697.0625 1144.648438 697.601562 1144.453125 698.152344 C 1144.257812 698.703125 1144.09375 699.261719 1143.953125 699.828125 C 1143.8125 700.394531 1143.703125 700.96875 1143.617188 701.546875 C 1143.535156 702.125 1143.480469 702.703125 1143.457031 703.289062 C 1143.429688 703.871094 1143.433594 704.453125 1143.464844 705.039062 C 1143.496094 705.621094 1143.558594 706.199219 1143.648438 706.777344 C 1143.738281 707.355469 1143.855469 707.925781 1144 708.492188 C 1144.144531 709.058594 1144.320312 709.613281 1144.519531 710.164062 C 1144.722656 710.710938 1144.949219 711.25 1145.203125 711.773438 C 1145.457031 712.300781 1145.734375 712.8125 1146.039062 713.3125 C 1146.347656 713.792969 1146.675781 714.257812 1147.027344 714.710938 C 1147.378906 715.160156 1147.75 715.59375 1148.144531 716.007812 C 1148.539062 716.421875 1148.949219 716.816406 1149.382812 717.191406 C 1149.8125 717.5625 1150.261719 717.917969 1150.726562 718.246094 C 1151.191406 718.578125 1151.671875 718.886719 1152.167969 719.171875 C 1152.664062 719.457031 1153.171875 719.714844 1153.691406 719.949219 C 1154.210938 720.1875 1154.742188 720.394531 1155.285156 720.578125 C 1155.824219 720.765625 1156.371094 720.921875 1156.929688 721.050781 C 1157.484375 721.183594 1158.046875 721.285156 1158.613281 721.363281 C 1159.175781 721.441406 1159.746094 721.488281 1160.316406 721.511719 C 1160.886719 721.53125 1161.457031 721.527344 1162.027344 721.492188 C 1162.597656 721.457031 1163.164062 721.398438 1163.730469 721.308594 C 1164.292969 721.21875 1164.851562 721.105469 1165.40625 720.960938 C 1165.957031 720.820312 1166.503906 720.652344 1167.039062 720.457031 C 1167.578125 720.261719 1168.101562 720.039062 1168.617188 719.792969 C 1169.132812 719.546875 1169.636719 719.277344 1170.125 718.980469 C 1170.628906 718.675781 1171.117188 718.351562 1171.585938 718 C 1172.058594 717.644531 1172.507812 717.273438 1172.941406 716.875 C 1173.375 716.476562 1173.789062 716.0625 1174.179688 715.621094 C 1174.574219 715.183594 1174.941406 714.730469 1175.289062 714.253906 C 1175.636719 713.777344 1175.957031 713.289062 1176.253906 712.78125 C 1176.554688 712.273438 1176.824219 711.753906 1177.070312 711.21875 C 1177.316406 710.6875 1177.535156 710.140625 1177.726562 709.585938 C 1177.917969 709.03125 1178.082031 708.464844 1178.21875 707.894531 C 1178.355469 707.324219 1178.460938 706.746094 1178.539062 706.164062 C 1178.617188 705.578125 1178.667969 704.996094 1178.6875 704.40625 C 1178.707031 703.820312 1178.699219 703.234375 1178.660156 702.644531 C 1178.621094 702.058594 1178.554688 701.476562 1178.457031 700.894531 C 1178.363281 700.316406 1178.238281 699.742188 1178.082031 699.175781 C 1177.929688 698.605469 1177.75 698.046875 1177.539062 697.5 C 1177.332031 696.949219 1177.09375 696.410156 1176.832031 695.886719 C 1176.570312 695.359375 1176.28125 694.847656 1175.96875 694.351562 C 1175.347656 693.402344 1174.644531 692.523438 1173.855469 691.710938 C 1173.066406 690.898438 1172.203125 690.167969 1171.277344 689.519531 C 1170.347656 688.875 1169.363281 688.320312 1168.328125 687.859375 C 1167.292969 687.402344 1166.222656 687.046875 1165.121094 686.792969 C 1164.015625 686.539062 1162.898438 686.390625 1161.765625 686.351562 C 1160.632812 686.3125 1159.507812 686.382812 1158.390625 686.558594 C 1157.273438 686.738281 1156.179688 687.019531 1155.117188 687.40625 C 1154.050781 687.792969 1153.03125 688.277344 1152.0625 688.859375 Z M 1152.0625 688.859375 " fill-opacity="1" fill-rule="nonzero"/><path fill="#000000" d="M 555.597656 402.160156 C 555.199219 402.523438 554.785156 402.871094 554.363281 403.210938 C 553.941406 403.550781 553.507812 403.875 553.066406 404.1875 C 552.621094 404.496094 552.171875 404.796875 551.710938 405.082031 C 551.25 405.363281 550.78125 405.636719 550.304688 405.890625 C 549.828125 406.148438 549.34375 406.386719 548.851562 406.613281 C 548.359375 406.839844 547.859375 407.054688 547.355469 407.25 C 546.851562 407.445312 546.34375 407.625 545.828125 407.792969 C 545.3125 407.957031 544.792969 408.105469 544.265625 408.238281 C 543.742188 408.375 543.214844 408.492188 542.683594 408.59375 C 542.152344 408.695312 541.617188 408.78125 541.078125 408.847656 C 540.542969 408.917969 540.003906 408.972656 539.464844 409.007812 C 538.925781 409.042969 538.382812 409.0625 537.84375 409.066406 C 537.300781 409.070312 536.761719 409.058594 536.21875 409.027344 C 535.679688 409 535.140625 408.953125 534.601562 408.890625 C 534.066406 408.832031 533.527344 408.753906 532.996094 408.65625 C 532.464844 408.5625 531.933594 408.453125 531.40625 408.324219 C 530.882812 408.199219 530.359375 408.054688 529.839844 407.898438 C 529.324219 407.738281 528.8125 407.566406 528.304688 407.375 C 527.796875 407.1875 527.296875 406.980469 526.800781 406.761719 C 526.308594 406.542969 525.820312 406.308594 525.339844 406.058594 C 524.859375 405.808594 524.386719 405.542969 523.921875 405.265625 C 523.457031 404.988281 523.003906 404.695312 522.554688 404.390625 C 522.109375 404.082031 521.671875 403.761719 521.246094 403.429688 C 520.816406 403.097656 520.402344 402.753906 519.996094 402.394531 C 519.589844 402.039062 519.195312 401.667969 518.808594 401.285156 C 518.425781 400.902344 518.054688 400.511719 517.695312 400.105469 C 517.335938 399.703125 516.988281 399.285156 516.652344 398.863281 C 516.316406 398.4375 515.996094 398 515.6875 397.554688 C 515.378906 397.109375 515.085938 396.65625 514.804688 396.195312 C 514.523438 395.730469 514.253906 395.257812 514.003906 394.78125 C 513.75 394.300781 513.515625 393.816406 513.292969 393.320312 C 513.070312 392.828125 512.859375 392.328125 512.667969 391.820312 C 512.476562 391.316406 512.300781 390.804688 512.136719 390.285156 C 511.976562 389.769531 511.832031 389.25 511.703125 388.722656 C 511.570312 388.195312 511.457031 387.667969 511.359375 387.132812 C 511.261719 386.601562 511.183594 386.066406 511.117188 385.527344 C 511.050781 384.992188 511.003906 384.453125 510.96875 383.910156 C 510.9375 383.371094 510.921875 382.828125 510.921875 382.289062 C 510.921875 381.746094 510.941406 381.207031 510.972656 380.664062 C 511.007812 380.125 511.054688 379.585938 511.121094 379.046875 C 511.1875 378.511719 511.269531 377.976562 511.371094 377.441406 C 511.46875 376.910156 511.582031 376.382812 511.710938 375.855469 C 511.84375 375.332031 511.988281 374.808594 512.152344 374.292969 C 512.3125 373.777344 512.492188 373.265625 512.683594 372.757812 C 512.878906 372.253906 513.085938 371.753906 513.3125 371.261719 C 513.535156 370.765625 513.773438 370.28125 514.027344 369.800781 C 514.277344 369.324219 514.546875 368.851562 514.828125 368.390625 C 515.109375 367.925781 515.40625 367.472656 515.714844 367.03125 C 516.023438 366.585938 516.34375 366.148438 516.679688 365.726562 C 517.015625 365.300781 517.363281 364.886719 517.726562 364.480469 C 518.085938 364.078125 518.457031 363.6875 518.84375 363.304688 C 519.226562 362.921875 519.625 362.554688 520.03125 362.199219 C 520.4375 361.839844 520.855469 361.496094 521.28125 361.164062 C 521.710938 360.832031 522.148438 360.515625 522.59375 360.207031 C 523.042969 359.902344 523.5 359.613281 523.964844 359.335938 C 524.429688 359.058594 524.902344 358.792969 525.382812 358.546875 C 525.863281 358.296875 526.351562 358.0625 526.84375 357.84375 C 527.339844 357.625 527.839844 357.421875 528.347656 357.230469 C 528.855469 357.042969 529.367188 356.871094 529.886719 356.710938 C 530.40625 356.554688 530.925781 356.414062 531.453125 356.289062 C 531.980469 356.160156 532.507812 356.050781 533.042969 355.957031 C 533.574219 355.863281 534.113281 355.789062 534.648438 355.726562 C 535.1875 355.664062 535.726562 355.621094 536.265625 355.59375 C 536.808594 355.5625 537.347656 355.550781 537.890625 355.558594 C 541.148438 355.585938 544.300781 356.175781 547.347656 357.335938 C 550.394531 358.492188 553.144531 360.144531 555.597656 362.289062 C 556.015625 362.746094 556.453125 363.179688 556.914062 363.59375 C 557.375 364.003906 557.855469 364.390625 558.355469 364.75 C 558.855469 365.113281 559.375 365.445312 559.910156 365.753906 C 560.445312 366.058594 560.996094 366.335938 561.5625 366.585938 C 562.125 366.835938 562.703125 367.054688 563.292969 367.242188 C 563.878906 367.433594 564.476562 367.589844 565.078125 367.714844 C 565.683594 367.84375 566.292969 367.9375 566.90625 368 C 567.519531 368.0625 568.136719 368.09375 568.753906 368.089844 C 569.371094 368.089844 569.988281 368.054688 570.601562 367.988281 C 571.214844 367.921875 571.824219 367.824219 572.425781 367.695312 C 573.03125 367.566406 573.625 367.40625 574.214844 367.214844 C 574.800781 367.019531 575.375 366.796875 575.9375 366.546875 C 576.503906 366.292969 577.050781 366.011719 577.585938 365.703125 C 578.121094 365.394531 578.636719 365.054688 579.132812 364.691406 C 579.632812 364.328125 580.113281 363.941406 580.570312 363.527344 C 581.027344 363.113281 581.464844 362.675781 581.878906 362.214844 C 582.289062 361.757812 582.675781 361.277344 583.039062 360.777344 C 583.402344 360.277344 583.738281 359.757812 584.046875 359.222656 C 584.355469 358.6875 584.632812 358.140625 584.886719 357.574219 C 585.136719 357.011719 585.355469 356.433594 585.546875 355.847656 C 585.738281 355.257812 585.898438 354.664062 586.027344 354.058594 C 586.15625 353.457031 586.25 352.847656 586.316406 352.230469 C 586.382812 351.617188 586.414062 351 586.414062 350.382812 C 586.414062 349.765625 586.382812 349.148438 586.320312 348.535156 C 586.253906 347.921875 586.160156 347.3125 586.03125 346.707031 C 585.902344 346.101562 585.746094 345.507812 585.554688 344.917969 C 585.363281 344.332031 585.144531 343.753906 584.894531 343.191406 C 584.644531 342.625 584.367188 342.074219 584.058594 341.539062 C 583.75 341.003906 583.414062 340.488281 583.054688 339.984375 C 582.691406 339.484375 582.304688 339.003906 581.890625 338.546875 C 581.480469 338.085938 581.046875 337.648438 580.585938 337.234375 C 580.128906 336.820312 579.652344 336.429688 579.152344 336.066406 C 576.339844 333.515625 573.316406 331.246094 570.082031 329.257812 C 566.847656 327.269531 563.460938 325.589844 559.917969 324.226562 C 556.375 322.863281 552.738281 321.835938 549.003906 321.148438 C 545.273438 320.457031 541.507812 320.113281 537.710938 320.117188 C 535.78125 320.265625 533.859375 320.5 531.949219 320.828125 C 530.039062 321.152344 528.148438 321.566406 526.277344 322.070312 C 524.40625 322.574219 522.558594 323.164062 520.742188 323.835938 C 518.925781 324.511719 517.148438 325.273438 515.402344 326.113281 C 513.65625 326.957031 511.953125 327.878906 510.292969 328.878906 C 508.632812 329.882812 507.027344 330.957031 505.46875 332.109375 C 503.90625 333.261719 502.40625 334.484375 500.960938 335.777344 C 499.519531 337.070312 498.136719 338.425781 496.820312 339.847656 C 495.5 341.269531 494.253906 342.75 493.074219 344.289062 C 491.894531 345.828125 490.789062 347.417969 489.757812 349.058594 C 488.730469 350.703125 487.777344 352.386719 486.902344 354.121094 C 486.03125 355.851562 485.242188 357.617188 484.535156 359.421875 C 483.824219 361.230469 483.203125 363.0625 482.667969 364.925781 C 482.132812 366.789062 481.683594 368.671875 481.324219 370.578125 C 480.960938 372.484375 480.691406 374.402344 480.511719 376.332031 C 480.332031 378.261719 480.242188 380.195312 480.242188 382.136719 C 480.242188 384.074219 480.332031 386.007812 480.511719 387.941406 C 480.691406 389.871094 480.960938 391.789062 481.324219 393.691406 C 481.683594 395.597656 482.132812 397.484375 482.667969 399.34375 C 483.203125 401.207031 483.824219 403.042969 484.535156 404.847656 C 485.242188 406.652344 486.03125 408.421875 486.902344 410.152344 C 487.777344 411.882812 488.730469 413.570312 489.757812 415.210938 C 490.789062 416.851562 491.894531 418.445312 493.074219 419.984375 C 494.253906 421.519531 495.5 423 496.820312 424.421875 C 498.136719 425.84375 499.519531 427.203125 500.960938 428.496094 C 502.40625 429.785156 503.90625 431.007812 505.46875 432.160156 C 507.027344 433.3125 508.632812 434.390625 510.292969 435.390625 C 511.953125 436.394531 513.65625 437.316406 515.402344 438.15625 C 517.148438 439 518.925781 439.757812 520.742188 440.433594 C 522.558594 441.109375 524.40625 441.699219 526.277344 442.203125 C 528.148438 442.703125 530.039062 443.117188 531.949219 443.445312 C 533.859375 443.769531 535.78125 444.007812 537.710938 444.152344 C 541.503906 444.175781 545.261719 443.847656 548.992188 443.171875 C 552.722656 442.5 556.359375 441.488281 559.902344 440.136719 C 563.445312 438.789062 566.835938 437.128906 570.070312 435.152344 C 573.308594 433.175781 576.335938 430.917969 579.152344 428.382812 C 579.949219 427.589844 580.667969 426.730469 581.300781 425.804688 C 581.9375 424.875 582.476562 423.894531 582.925781 422.863281 C 583.371094 421.832031 583.71875 420.769531 583.964844 419.671875 C 584.210938 418.574219 584.351562 417.464844 584.386719 416.339844 C 584.417969 415.214844 584.347656 414.097656 584.167969 412.988281 C 583.992188 411.878906 583.710938 410.796875 583.324219 409.738281 C 582.941406 408.683594 582.460938 407.671875 581.882812 406.707031 C 581.304688 405.742188 580.644531 404.839844 579.894531 404 C 579.148438 403.164062 578.328125 402.402344 577.433594 401.71875 C 576.539062 401.035156 575.589844 400.445312 574.585938 399.941406 C 573.578125 399.441406 572.535156 399.039062 571.453125 398.734375 C 570.371094 398.433594 569.269531 398.234375 568.148438 398.140625 C 567.03125 398.050781 565.910156 398.0625 564.792969 398.183594 C 563.675781 398.300781 562.582031 398.527344 561.507812 398.855469 C 560.429688 399.183594 559.398438 399.613281 558.402344 400.136719 C 557.410156 400.664062 556.476562 401.277344 555.597656 401.980469 Z M 555.597656 402.160156 " fill-opacity="1" fill-rule="nonzero"/><path fill="#000000" d="M 657.605469 320.117188 C 655.714844 320.320312 653.835938 320.609375 651.96875 320.984375 C 650.105469 321.359375 648.261719 321.816406 646.4375 322.363281 C 644.613281 322.90625 642.816406 323.53125 641.050781 324.242188 C 639.285156 324.949219 637.554688 325.734375 635.863281 326.601562 C 634.167969 327.46875 632.515625 328.410156 630.910156 329.429688 C 629.300781 330.449219 627.742188 331.539062 626.234375 332.699219 C 624.726562 333.859375 623.273438 335.085938 621.878906 336.378906 C 620.480469 337.675781 619.148438 339.03125 617.875 340.445312 C 616.605469 341.863281 615.398438 343.332031 614.261719 344.859375 C 613.125 346.386719 612.058594 347.960938 611.066406 349.585938 C 610.074219 351.207031 609.15625 352.875 608.316406 354.582031 C 607.476562 356.292969 606.714844 358.035156 606.035156 359.8125 C 605.351562 361.589844 604.753906 363.394531 604.238281 365.226562 C 603.722656 367.058594 603.292969 368.910156 602.945312 370.785156 C 602.597656 372.65625 602.339844 374.539062 602.164062 376.4375 C 601.992188 378.332031 601.90625 380.230469 601.90625 382.136719 C 601.90625 384.039062 601.992188 385.9375 602.164062 387.835938 C 602.339844 389.730469 602.597656 391.617188 602.945312 393.488281 C 603.292969 395.359375 603.722656 397.210938 604.238281 399.042969 C 604.753906 400.875 605.351562 402.683594 606.035156 404.460938 C 606.714844 406.238281 607.476562 407.980469 608.316406 409.6875 C 609.15625 411.398438 610.074219 413.0625 611.066406 414.6875 C 612.058594 416.3125 613.125 417.886719 614.261719 419.414062 C 615.398438 420.9375 616.605469 422.410156 617.875 423.824219 C 619.148438 425.242188 620.480469 426.597656 621.878906 427.890625 C 623.273438 429.183594 624.726562 430.414062 626.234375 431.574219 C 627.742188 432.734375 629.300781 433.824219 630.90625 434.839844 C 632.515625 435.859375 634.167969 436.800781 635.863281 437.667969 C 637.554688 438.535156 639.285156 439.324219 641.050781 440.03125 C 642.816406 440.738281 644.613281 441.367188 646.4375 441.910156 C 648.261719 442.453125 650.105469 442.914062 651.96875 443.289062 C 653.835938 443.660156 655.714844 443.949219 657.605469 444.152344 C 659.5 443.949219 661.378906 443.660156 663.242188 443.289062 C 665.109375 442.914062 666.953125 442.453125 668.777344 441.910156 C 670.601562 441.367188 672.394531 440.738281 674.160156 440.03125 C 675.929688 439.324219 677.65625 438.535156 679.351562 437.667969 C 681.046875 436.800781 682.699219 435.859375 684.304688 434.839844 C 685.914062 433.824219 687.472656 432.734375 688.980469 431.574219 C 690.488281 430.414062 691.941406 429.183594 693.335938 427.890625 C 694.730469 426.597656 696.066406 425.242188 697.335938 423.824219 C 698.609375 422.410156 699.8125 420.9375 700.949219 419.414062 C 702.089844 417.886719 703.152344 416.3125 704.148438 414.6875 C 705.140625 413.0625 706.054688 411.398438 706.898438 409.6875 C 707.738281 407.980469 708.5 406.238281 709.179688 404.460938 C 709.859375 402.683594 710.457031 400.875 710.976562 399.042969 C 711.492188 397.210938 711.921875 395.359375 712.269531 393.488281 C 712.613281 391.617188 712.875 389.730469 713.046875 387.835938 C 713.222656 385.941406 713.308594 384.039062 713.308594 382.136719 C 713.308594 380.230469 713.222656 378.332031 713.046875 376.4375 C 712.875 374.539062 712.613281 372.65625 712.269531 370.785156 C 711.921875 368.910156 711.492188 367.058594 710.976562 365.226562 C 710.457031 363.394531 709.859375 361.589844 709.179688 359.8125 C 708.5 358.035156 707.738281 356.292969 706.898438 354.582031 C 706.054688 352.875 705.140625 351.207031 704.148438 349.585938 C 703.152344 347.960938 702.089844 346.386719 700.949219 344.859375 C 699.8125 343.332031 698.609375 341.863281 697.335938 340.445312 C 696.066406 339.03125 694.730469 337.675781 693.335938 336.378906 C 691.941406 335.085938 690.488281 333.859375 688.980469 332.699219 C 687.472656 331.539062 685.914062 330.449219 684.304688 329.429688 C 682.699219 328.410156 681.046875 327.46875 679.351562 326.601562 C 677.65625 325.734375 675.929688 324.949219 674.160156 324.238281 C 672.394531 323.53125 670.601562 322.90625 668.777344 322.363281 C 666.953125 321.816406 665.109375 321.359375 663.242188 320.984375 C 661.378906 320.609375 659.5 320.320312 657.605469 320.117188 Z M 657.605469 408.714844 C 656.148438 408.335938 654.726562 407.835938 653.351562 407.222656 C 651.972656 406.609375 650.652344 405.886719 649.394531 405.054688 C 648.136719 404.222656 646.953125 403.292969 645.847656 402.265625 C 644.742188 401.238281 643.726562 400.128906 642.804688 398.933594 C 641.882812 397.738281 641.0625 396.476562 640.347656 395.148438 C 639.632812 393.816406 639.03125 392.4375 638.546875 391.011719 C 638.058594 389.582031 637.691406 388.121094 637.441406 386.632812 C 637.195312 385.144531 637.074219 383.644531 637.074219 382.136719 C 637.074219 380.625 637.195312 379.125 637.441406 377.636719 C 637.691406 376.148438 638.058594 374.691406 638.546875 373.261719 C 639.03125 371.832031 639.632812 370.453125 640.347656 369.125 C 641.0625 367.792969 641.882812 366.53125 642.804688 365.339844 C 643.726562 364.144531 644.742188 363.035156 645.847656 362.007812 C 646.953125 360.980469 648.136719 360.050781 649.394531 359.21875 C 650.652344 358.386719 651.972656 357.664062 653.351562 357.046875 C 654.726562 356.433594 656.148438 355.9375 657.605469 355.558594 C 659.066406 355.9375 660.484375 356.433594 661.863281 357.046875 C 663.242188 357.664062 664.558594 358.386719 665.820312 359.21875 C 667.078125 360.050781 668.261719 360.980469 669.367188 362.007812 C 670.472656 363.035156 671.484375 364.144531 672.410156 365.339844 C 673.332031 366.53125 674.152344 367.792969 674.863281 369.125 C 675.578125 370.453125 676.179688 371.832031 676.667969 373.261719 C 677.15625 374.691406 677.523438 376.148438 677.769531 377.636719 C 678.015625 379.125 678.140625 380.625 678.140625 382.136719 C 678.140625 383.644531 678.015625 385.144531 677.769531 386.632812 C 677.523438 388.121094 677.15625 389.582031 676.667969 391.011719 C 676.179688 392.4375 675.578125 393.816406 674.863281 395.148438 C 674.152344 396.476562 673.332031 397.738281 672.410156 398.933594 C 671.484375 400.128906 670.472656 401.238281 669.367188 402.265625 C 668.261719 403.292969 667.078125 404.222656 665.820312 405.054688 C 664.558594 405.886719 663.242188 406.609375 661.863281 407.222656 C 660.484375 407.835938 659.066406 408.335938 657.605469 408.714844 Z M 657.605469 408.714844 " fill-opacity="1" fill-rule="nonzero"/><path fill="#000000" d="M 773.074219 320.117188 L 757.3125 320.117188 C 756.730469 320.117188 756.152344 320.144531 755.578125 320.203125 C 755 320.261719 754.425781 320.34375 753.855469 320.457031 C 753.289062 320.570312 752.726562 320.710938 752.171875 320.882812 C 751.617188 321.050781 751.070312 321.246094 750.535156 321.464844 C 750 321.6875 749.476562 321.9375 748.964844 322.210938 C 748.453125 322.484375 747.957031 322.78125 747.472656 323.105469 C 746.992188 323.425781 746.527344 323.773438 746.078125 324.140625 C 745.628906 324.507812 745.199219 324.898438 744.789062 325.308594 C 744.378906 325.71875 743.992188 326.148438 743.621094 326.597656 C 743.253906 327.042969 742.910156 327.511719 742.585938 327.992188 C 742.265625 328.476562 741.96875 328.972656 741.695312 329.484375 C 741.421875 329.996094 741.171875 330.519531 740.949219 331.054688 C 740.730469 331.59375 740.535156 332.136719 740.367188 332.695312 C 740.195312 333.25 740.054688 333.8125 739.941406 334.378906 C 739.828125 334.949219 739.746094 335.523438 739.6875 336.101562 C 739.632812 336.679688 739.601562 337.257812 739.601562 337.835938 L 739.601562 426.433594 C 739.601562 427.015625 739.632812 427.59375 739.6875 428.171875 C 739.746094 428.75 739.828125 429.320312 739.941406 429.890625 C 740.054688 430.460938 740.195312 431.023438 740.363281 431.578125 C 740.535156 432.132812 740.730469 432.679688 740.949219 433.214844 C 741.171875 433.75 741.421875 434.273438 741.695312 434.785156 C 741.96875 435.296875 742.265625 435.796875 742.585938 436.277344 C 742.910156 436.761719 743.253906 437.226562 743.621094 437.675781 C 743.992188 438.125 744.378906 438.554688 744.789062 438.964844 C 745.199219 439.375 745.628906 439.761719 746.078125 440.132812 C 746.527344 440.5 746.992188 440.84375 747.472656 441.167969 C 747.957031 441.488281 748.453125 441.789062 748.964844 442.0625 C 749.476562 442.335938 750 442.582031 750.535156 442.804688 C 751.070312 443.027344 751.617188 443.222656 752.171875 443.390625 C 752.726562 443.558594 753.289062 443.699219 753.855469 443.8125 C 754.425781 443.925781 755 444.011719 755.578125 444.066406 C 756.152344 444.125 756.730469 444.152344 757.3125 444.152344 L 773.074219 444.152344 C 774.136719 444.234375 775.203125 444.285156 776.269531 444.3125 C 777.332031 444.339844 778.398438 444.335938 779.464844 444.308594 C 780.53125 444.277344 781.59375 444.222656 782.660156 444.136719 C 783.722656 444.054688 784.78125 443.941406 785.839844 443.804688 C 786.894531 443.664062 787.949219 443.5 788.996094 443.304688 C 790.046875 443.113281 791.089844 442.894531 792.125 442.648438 C 793.164062 442.402344 794.195312 442.128906 795.21875 441.828125 C 796.242188 441.527344 797.253906 441.203125 798.261719 440.851562 C 799.269531 440.5 800.265625 440.121094 801.253906 439.71875 C 802.242188 439.316406 803.214844 438.886719 804.179688 438.433594 C 805.148438 437.980469 806.097656 437.503906 807.039062 437 C 807.980469 436.496094 808.90625 435.972656 809.820312 435.421875 C 810.734375 434.871094 811.632812 434.296875 812.515625 433.703125 C 813.402344 433.105469 814.269531 432.484375 815.121094 431.84375 C 815.972656 431.203125 816.808594 430.542969 817.628906 429.855469 C 818.445312 429.171875 819.246094 428.46875 820.027344 427.742188 C 820.808594 427.015625 821.570312 426.273438 822.316406 425.507812 C 823.058594 424.742188 823.78125 423.960938 824.484375 423.160156 C 825.1875 422.355469 825.871094 421.535156 826.53125 420.699219 C 827.191406 419.863281 827.832031 419.007812 828.449219 418.140625 C 829.066406 417.269531 829.660156 416.382812 830.234375 415.484375 C 830.804688 414.582031 831.351562 413.667969 831.878906 412.738281 C 832.402344 411.8125 832.902344 410.871094 833.378906 409.914062 C 833.855469 408.960938 834.304688 407.996094 834.734375 407.015625 C 835.160156 406.039062 835.5625 405.050781 835.9375 404.054688 C 836.3125 403.054688 836.660156 402.046875 836.984375 401.03125 C 837.308594 400.015625 837.605469 398.992188 837.878906 397.957031 C 838.148438 396.925781 838.394531 395.890625 838.613281 394.84375 C 838.832031 393.800781 839.019531 392.75 839.183594 391.695312 C 839.347656 390.644531 839.484375 389.585938 839.59375 388.523438 C 839.703125 387.460938 839.785156 386.398438 839.839844 385.335938 C 839.894531 384.269531 839.925781 383.203125 839.925781 382.136719 C 839.925781 381.070312 839.894531 380.003906 839.839844 378.9375 C 839.785156 377.871094 839.703125 376.808594 839.59375 375.746094 C 839.484375 374.6875 839.347656 373.628906 839.183594 372.574219 C 839.019531 371.519531 838.832031 370.472656 838.613281 369.425781 C 838.394531 368.382812 838.148438 367.34375 837.878906 366.3125 C 837.605469 365.28125 837.308594 364.257812 836.984375 363.242188 C 836.660156 362.222656 836.3125 361.21875 835.9375 360.21875 C 835.5625 359.21875 835.160156 358.230469 834.734375 357.253906 C 834.304688 356.277344 833.855469 355.3125 833.378906 354.355469 C 832.902344 353.402344 832.402344 352.460938 831.878906 351.53125 C 831.351562 350.601562 830.804688 349.6875 830.234375 348.789062 C 829.660156 347.886719 829.066406 347 828.449219 346.132812 C 827.832031 345.261719 827.191406 344.410156 826.53125 343.570312 C 825.871094 342.734375 825.1875 341.914062 824.484375 341.113281 C 823.78125 340.3125 823.058594 339.527344 822.316406 338.761719 C 821.570312 338 820.808594 337.253906 820.027344 336.527344 C 819.246094 335.804688 818.445312 335.097656 817.628906 334.414062 C 816.808594 333.730469 815.972656 333.066406 815.121094 332.425781 C 814.269531 331.785156 813.402344 331.167969 812.515625 330.570312 C 811.632812 329.972656 810.734375 329.398438 809.820312 328.851562 C 808.90625 328.300781 807.980469 327.773438 807.039062 327.269531 C 806.097656 326.769531 805.148438 326.289062 804.179688 325.835938 C 803.214844 325.382812 802.242188 324.957031 801.253906 324.550781 C 800.265625 324.148438 799.269531 323.773438 798.261719 323.421875 C 797.253906 323.066406 796.242188 322.742188 795.21875 322.441406 C 794.195312 322.144531 793.164062 321.871094 792.125 321.625 C 791.089844 321.378906 790.046875 321.15625 788.996094 320.964844 C 787.949219 320.773438 786.894531 320.605469 785.839844 320.46875 C 784.78125 320.328125 783.722656 320.21875 782.660156 320.132812 C 781.59375 320.050781 780.53125 319.992188 779.464844 319.964844 C 778.398438 319.933594 777.332031 319.933594 776.269531 319.957031 C 775.203125 319.984375 774.136719 320.039062 773.074219 320.117188 Z M 775.023438 408.714844 L 775.023438 355.558594 C 775.890625 355.558594 776.761719 355.597656 777.625 355.683594 C 778.492188 355.769531 779.351562 355.898438 780.203125 356.066406 C 781.058594 356.238281 781.902344 356.449219 782.734375 356.703125 C 783.566406 356.953125 784.382812 357.246094 785.1875 357.578125 C 785.992188 357.914062 786.777344 358.285156 787.542969 358.695312 C 788.3125 359.105469 789.058594 359.550781 789.78125 360.035156 C 790.503906 360.519531 791.203125 361.039062 791.875 361.589844 C 792.546875 362.140625 793.191406 362.726562 793.804688 363.339844 C 794.421875 363.957031 795.003906 364.601562 795.554688 365.273438 C 796.109375 365.945312 796.625 366.644531 797.109375 367.371094 C 797.59375 368.09375 798.039062 368.839844 798.449219 369.605469 C 798.859375 370.375 799.230469 371.160156 799.5625 371.964844 C 799.898438 372.769531 800.191406 373.585938 800.441406 374.421875 C 800.695312 375.253906 800.90625 376.097656 801.074219 376.949219 C 801.246094 377.804688 801.375 378.664062 801.457031 379.53125 C 801.542969 380.398438 801.585938 381.265625 801.585938 382.136719 C 801.585938 383.007812 801.542969 383.875 801.457031 384.742188 C 801.375 385.605469 801.246094 386.46875 801.074219 387.320312 C 800.90625 388.175781 800.695312 389.019531 800.441406 389.851562 C 800.191406 390.683594 799.898438 391.503906 799.5625 392.308594 C 799.230469 393.109375 798.859375 393.898438 798.449219 394.664062 C 798.039062 395.433594 797.59375 396.179688 797.109375 396.902344 C 796.625 397.625 796.109375 398.324219 795.554688 398.996094 C 795.003906 399.671875 794.421875 400.3125 793.804688 400.929688 C 793.191406 401.546875 792.546875 402.128906 791.875 402.679688 C 791.203125 403.234375 790.503906 403.75 789.78125 404.234375 C 789.058594 404.71875 788.3125 405.164062 787.542969 405.578125 C 786.777344 405.988281 785.992188 406.359375 785.1875 406.691406 C 784.382812 407.023438 783.566406 407.316406 782.734375 407.570312 C 781.902344 407.824219 781.058594 408.035156 780.203125 408.203125 C 779.351562 408.375 778.492188 408.5 777.625 408.585938 C 776.761719 408.671875 775.890625 408.714844 775.023438 408.714844 Z M 775.023438 408.714844 " fill-opacity="1" fill-rule="nonzero"/><path fill="#000000" d="M 923.429688 355.558594 C 924.007812 355.558594 924.585938 355.527344 925.164062 355.472656 C 925.742188 355.414062 926.316406 355.328125 926.882812 355.214844 C 927.453125 355.101562 928.015625 354.960938 928.570312 354.792969 C 929.125 354.625 929.671875 354.429688 930.207031 354.207031 C 930.742188 353.984375 931.265625 353.738281 931.777344 353.464844 C 932.289062 353.191406 932.785156 352.894531 933.269531 352.570312 C 933.75 352.246094 934.214844 351.902344 934.664062 351.535156 C 935.113281 351.167969 935.542969 350.777344 935.953125 350.367188 C 936.363281 349.957031 936.75 349.527344 937.117188 349.078125 C 937.488281 348.628906 937.832031 348.164062 938.152344 347.683594 C 938.476562 347.199219 938.773438 346.703125 939.046875 346.191406 C 939.320312 345.679688 939.570312 345.15625 939.789062 344.617188 C 940.011719 344.082031 940.207031 343.535156 940.375 342.980469 C 940.542969 342.425781 940.683594 341.863281 940.796875 341.292969 C 940.910156 340.726562 940.996094 340.152344 941.054688 339.574219 C 941.109375 338.996094 941.140625 338.417969 941.140625 337.835938 C 941.140625 337.257812 941.109375 336.679688 941.054688 336.101562 C 940.996094 335.523438 940.910156 334.949219 940.796875 334.378906 C 940.683594 333.8125 940.542969 333.25 940.375 332.695312 C 940.207031 332.136719 940.011719 331.59375 939.789062 331.054688 C 939.570312 330.519531 939.320312 329.996094 939.046875 329.484375 C 938.773438 328.972656 938.476562 328.476562 938.152344 327.992188 C 937.832031 327.511719 937.488281 327.042969 937.117188 326.597656 C 936.75 326.148438 936.363281 325.71875 935.953125 325.308594 C 935.542969 324.898438 935.113281 324.507812 934.664062 324.140625 C 934.214844 323.773438 933.75 323.425781 933.269531 323.105469 C 932.785156 322.78125 932.289062 322.484375 931.777344 322.210938 C 931.265625 321.9375 930.742188 321.6875 930.207031 321.464844 C 929.671875 321.246094 929.125 321.050781 928.570312 320.882812 C 928.015625 320.710938 927.453125 320.570312 926.882812 320.457031 C 926.316406 320.34375 925.742188 320.261719 925.164062 320.203125 C 924.585938 320.144531 924.007812 320.117188 923.429688 320.117188 L 880.925781 320.117188 C 880.347656 320.117188 879.765625 320.144531 879.191406 320.203125 C 878.613281 320.261719 878.039062 320.34375 877.472656 320.457031 C 876.902344 320.570312 876.339844 320.710938 875.785156 320.882812 C 875.230469 321.050781 874.683594 321.246094 874.148438 321.464844 C 873.613281 321.6875 873.089844 321.9375 872.578125 322.210938 C 872.066406 322.484375 871.570312 322.78125 871.085938 323.105469 C 870.605469 323.425781 870.140625 323.773438 869.691406 324.140625 C 869.242188 324.507812 868.8125 324.898438 868.402344 325.308594 C 867.992188 325.71875 867.605469 326.148438 867.234375 326.597656 C 866.867188 327.042969 866.523438 327.511719 866.199219 327.992188 C 865.878906 328.476562 865.582031 328.972656 865.308594 329.484375 C 865.035156 329.996094 864.785156 330.519531 864.5625 331.054688 C 864.34375 331.59375 864.148438 332.136719 863.980469 332.695312 C 863.808594 333.25 863.667969 333.8125 863.554688 334.378906 C 863.441406 334.949219 863.359375 335.523438 863.300781 336.101562 C 863.246094 336.679688 863.214844 337.257812 863.214844 337.835938 L 863.214844 426.433594 C 863.214844 427.015625 863.246094 427.59375 863.300781 428.171875 C 863.359375 428.75 863.441406 429.320312 863.554688 429.890625 C 863.667969 430.460938 863.808594 431.023438 863.980469 431.578125 C 864.148438 432.132812 864.34375 432.679688 864.5625 433.214844 C 864.785156 433.75 865.035156 434.273438 865.308594 434.785156 C 865.582031 435.296875 865.878906 435.796875 866.199219 436.277344 C 866.523438 436.761719 866.867188 437.226562 867.234375 437.675781 C 867.605469 438.125 867.992188 438.554688 868.402344 438.964844 C 868.8125 439.375 869.242188 439.761719 869.691406 440.132812 C 870.140625 440.5 870.605469 440.84375 871.085938 441.167969 C 871.570312 441.488281 872.066406 441.789062 872.578125 442.0625 C 873.089844 442.335938 873.613281 442.582031 874.148438 442.804688 C 874.683594 443.027344 875.230469 443.222656 875.785156 443.390625 C 876.339844 443.558594 876.902344 443.699219 877.472656 443.8125 C 878.039062 443.925781 878.613281 444.011719 879.191406 444.066406 C 879.765625 444.125 880.347656 444.152344 880.925781 444.152344 L 923.429688 444.152344 C 924.007812 444.152344 924.585938 444.125 925.164062 444.066406 C 925.742188 444.011719 926.316406 443.925781 926.882812 443.8125 C 927.453125 443.699219 928.015625 443.558594 928.570312 443.390625 C 929.125 443.222656 929.671875 443.027344 930.207031 442.804688 C 930.742188 442.582031 931.265625 442.335938 931.777344 442.0625 C 932.289062 441.789062 932.785156 441.488281 933.269531 441.167969 C 933.75 440.84375 934.214844 440.5 934.664062 440.132812 C 935.113281 439.761719 935.542969 439.375 935.953125 438.964844 C 936.363281 438.554688 936.75 438.125 937.117188 437.675781 C 937.488281 437.226562 937.832031 436.761719 938.152344 436.277344 C 938.476562 435.796875 938.773438 435.296875 939.046875 434.785156 C 939.320312 434.273438 939.570312 433.75 939.789062 433.214844 C 940.011719 432.679688 940.207031 432.132812 940.375 431.578125 C 940.542969 431.023438 940.683594 430.460938 940.796875 429.890625 C 940.910156 429.320312 940.996094 428.75 941.054688 428.171875 C 941.109375 427.59375 941.140625 427.015625 941.140625 426.433594 C 941.140625 425.855469 941.109375 425.273438 941.054688 424.699219 C 940.996094 424.121094 940.910156 423.546875 940.796875 422.976562 C 940.683594 422.40625 940.542969 421.847656 940.375 421.289062 C 940.207031 420.734375 940.011719 420.1875 939.789062 419.652344 C 939.570312 419.117188 939.320312 418.59375 939.046875 418.082031 C 938.773438 417.570312 938.476562 417.074219 938.152344 416.589844 C 937.832031 416.105469 937.488281 415.640625 937.117188 415.191406 C 936.75 414.746094 936.363281 414.316406 935.953125 413.90625 C 935.542969 413.496094 935.113281 413.105469 934.664062 412.738281 C 934.214844 412.367188 933.75 412.023438 933.269531 411.699219 C 932.785156 411.378906 932.289062 411.082031 931.777344 410.808594 C 931.265625 410.535156 930.742188 410.285156 930.207031 410.0625 C 929.671875 409.839844 929.125 409.644531 928.570312 409.476562 C 928.015625 409.308594 927.453125 409.167969 926.882812 409.054688 C 926.316406 408.941406 925.742188 408.855469 925.164062 408.800781 C 924.585938 408.742188 924.007812 408.714844 923.429688 408.714844 L 898.636719 408.714844 L 898.636719 399.855469 L 923.429688 399.855469 C 924.007812 399.855469 924.585938 399.828125 925.164062 399.769531 C 925.742188 399.710938 926.316406 399.628906 926.882812 399.515625 C 927.453125 399.402344 928.015625 399.261719 928.570312 399.09375 C 929.125 398.921875 929.671875 398.726562 930.207031 398.507812 C 930.742188 398.285156 931.265625 398.035156 931.777344 397.761719 C 932.289062 397.488281 932.785156 397.191406 933.269531 396.867188 C 933.75 396.546875 934.214844 396.199219 934.664062 395.832031 C 935.113281 395.464844 935.542969 395.074219 935.953125 394.664062 C 936.363281 394.253906 936.75 393.824219 937.117188 393.375 C 937.488281 392.929688 937.832031 392.460938 938.152344 391.980469 C 938.476562 391.496094 938.773438 391 939.046875 390.488281 C 939.320312 389.976562 939.570312 389.453125 939.789062 388.917969 C 940.011719 388.378906 940.207031 387.835938 940.375 387.28125 C 940.542969 386.722656 940.683594 386.160156 940.796875 385.59375 C 940.910156 385.023438 940.996094 384.449219 941.054688 383.871094 C 941.109375 383.296875 941.140625 382.714844 941.140625 382.136719 C 941.140625 381.554688 941.109375 380.976562 941.054688 380.398438 C 940.996094 379.820312 940.910156 379.246094 940.796875 378.679688 C 940.683594 378.109375 940.542969 377.546875 940.375 376.992188 C 940.207031 376.4375 940.011719 375.890625 939.789062 375.355469 C 939.570312 374.820312 939.320312 374.292969 939.046875 373.78125 C 938.773438 373.269531 938.476562 372.773438 938.152344 372.292969 C 937.832031 371.808594 937.488281 371.34375 937.117188 370.894531 C 936.75 370.445312 936.363281 370.015625 935.953125 369.605469 C 935.542969 369.195312 935.113281 368.804688 934.664062 368.4375 C 934.214844 368.070312 933.75 367.726562 933.269531 367.402344 C 932.785156 367.082031 932.289062 366.78125 931.777344 366.507812 C 931.265625 366.234375 930.742188 365.988281 930.207031 365.765625 C 929.671875 365.542969 929.125 365.347656 928.570312 365.179688 C 928.015625 365.011719 927.453125 364.871094 926.882812 364.757812 C 926.316406 364.644531 925.742188 364.558594 925.164062 364.5 C 924.585938 364.445312 924.007812 364.417969 923.429688 364.417969 L 898.636719 364.417969 L 898.636719 355.558594 Z M 923.429688 355.558594 " fill-opacity="1" fill-rule="nonzero"/><path fill="#000000" d="M 403.472656 382.136719 L 478.917969 300.273438 C 479.316406 299.84375 479.691406 299.394531 480.046875 298.929688 C 480.40625 298.460938 480.734375 297.976562 481.042969 297.480469 C 481.351562 296.980469 481.636719 296.464844 481.894531 295.941406 C 482.152344 295.414062 482.382812 294.875 482.585938 294.324219 C 482.792969 293.773438 482.96875 293.214844 483.121094 292.648438 C 483.269531 292.082031 483.390625 291.507812 483.484375 290.929688 C 483.578125 290.351562 483.644531 289.765625 483.683594 289.183594 C 483.71875 288.597656 483.726562 288.011719 483.707031 287.421875 C 483.683594 286.835938 483.636719 286.253906 483.558594 285.671875 C 483.480469 285.089844 483.371094 284.515625 483.238281 283.941406 C 483.101562 283.371094 482.941406 282.808594 482.75 282.253906 C 482.5625 281.699219 482.34375 281.152344 482.101562 280.621094 C 481.859375 280.085938 481.589844 279.566406 481.292969 279.058594 C 481 278.550781 480.679688 278.058594 480.339844 277.582031 C 479.996094 277.105469 479.628906 276.648438 479.242188 276.207031 C 478.855469 275.765625 478.445312 275.347656 478.019531 274.945312 C 477.589844 274.546875 477.140625 274.167969 476.675781 273.8125 C 476.210938 273.457031 475.726562 273.125 475.230469 272.816406 C 474.730469 272.507812 474.21875 272.222656 473.691406 271.964844 C 473.164062 271.707031 472.625 271.472656 472.078125 271.269531 C 471.527344 271.0625 470.96875 270.882812 470.402344 270.734375 C 469.835938 270.582031 469.261719 270.460938 468.683594 270.367188 C 468.105469 270.269531 467.523438 270.203125 466.9375 270.167969 C 466.351562 270.128906 465.769531 270.121094 465.179688 270.140625 C 464.59375 270.164062 464.011719 270.210938 463.429688 270.289062 C 462.847656 270.367188 462.273438 270.472656 461.703125 270.605469 C 461.132812 270.742188 460.566406 270.902344 460.011719 271.089844 C 459.457031 271.28125 458.914062 271.496094 458.378906 271.738281 C 457.847656 271.984375 457.324219 272.25 456.816406 272.546875 C 456.308594 272.839844 455.820312 273.15625 455.34375 273.5 C 454.867188 273.84375 454.40625 274.207031 453.96875 274.59375 C 453.527344 274.984375 453.105469 275.390625 452.707031 275.820312 L 365.75 370.265625 C 365.011719 371.074219 364.351562 371.945312 363.773438 372.875 C 363.195312 373.808594 362.707031 374.785156 362.308594 375.808594 C 361.914062 376.832031 361.613281 377.882812 361.410156 378.960938 C 361.210938 380.039062 361.109375 381.128906 361.109375 382.222656 C 361.109375 383.320312 361.210938 384.410156 361.410156 385.488281 C 361.613281 386.566406 361.914062 387.617188 362.308594 388.640625 C 362.707031 389.664062 363.195312 390.640625 363.773438 391.574219 C 364.351562 392.503906 365.011719 393.375 365.75 394.183594 L 452.707031 488.453125 C 453.535156 489.371094 454.449219 490.191406 455.449219 490.917969 C 456.449219 491.644531 457.511719 492.257812 458.640625 492.761719 C 459.769531 493.265625 460.9375 493.648438 462.144531 493.90625 C 463.351562 494.164062 464.574219 494.296875 465.8125 494.300781 C 466.671875 494.304688 467.527344 494.25 468.378906 494.128906 C 469.226562 494.011719 470.066406 493.832031 470.890625 493.589844 C 471.714844 493.351562 472.519531 493.050781 473.300781 492.691406 C 474.082031 492.335938 474.835938 491.921875 475.554688 491.453125 C 476.277344 490.988281 476.960938 490.46875 477.609375 489.902344 C 478.253906 489.335938 478.855469 488.726562 479.414062 488.070312 C 479.96875 487.417969 480.476562 486.726562 480.933594 485.996094 C 481.390625 485.269531 481.792969 484.511719 482.140625 483.722656 C 482.484375 482.9375 482.773438 482.128906 483 481.300781 C 483.230469 480.46875 483.398438 479.628906 483.503906 478.777344 C 483.613281 477.921875 483.65625 477.066406 483.636719 476.207031 C 483.621094 475.347656 483.539062 474.492188 483.398438 473.644531 C 483.253906 472.796875 483.050781 471.964844 482.789062 471.144531 C 482.523438 470.328125 482.203125 469.53125 481.824219 468.757812 C 481.445312 467.988281 481.011719 467.246094 480.523438 466.539062 C 480.035156 465.832031 479.5 465.160156 478.917969 464.53125 Z M 403.472656 382.136719 " fill-opacity="1" fill-rule="nonzero"/><path fill="#000000" d="M 1072.898438 370.265625 L 986.652344 275.820312 C 986.261719 275.390625 985.847656 274.980469 985.417969 274.59375 C 984.984375 274.203125 984.535156 273.839844 984.070312 273.492188 C 983.601562 273.148438 983.117188 272.828125 982.617188 272.53125 C 982.117188 272.234375 981.605469 271.964844 981.082031 271.714844 C 980.554688 271.46875 980.019531 271.25 979.46875 271.054688 C 978.921875 270.863281 978.367188 270.695312 977.804688 270.558594 C 977.238281 270.417969 976.671875 270.304688 976.09375 270.222656 C 975.519531 270.140625 974.945312 270.085938 974.363281 270.058594 C 973.78125 270.03125 973.203125 270.035156 972.625 270.066406 C 972.042969 270.09375 971.464844 270.152344 970.890625 270.242188 C 970.316406 270.328125 969.75 270.445312 969.1875 270.585938 C 968.625 270.730469 968.070312 270.898438 967.523438 271.097656 C 966.976562 271.296875 966.441406 271.519531 965.917969 271.769531 C 965.394531 272.019531 964.882812 272.292969 964.386719 272.59375 C 963.890625 272.894531 963.40625 273.21875 962.941406 273.566406 C 962.476562 273.914062 962.03125 274.285156 961.601562 274.675781 C 961.171875 275.066406 960.761719 275.480469 960.375 275.910156 C 959.984375 276.34375 959.617188 276.792969 959.273438 277.261719 C 958.929688 277.726562 958.609375 278.210938 958.3125 278.710938 C 958.015625 279.210938 957.742188 279.722656 957.496094 280.25 C 957.25 280.773438 957.03125 281.3125 956.835938 281.859375 C 956.640625 282.40625 956.476562 282.960938 956.335938 283.527344 C 956.195312 284.089844 956.085938 284.660156 956 285.234375 C 955.917969 285.808594 955.863281 286.386719 955.835938 286.96875 C 955.808594 287.546875 955.808594 288.128906 955.839844 288.710938 C 955.871094 289.289062 955.929688 289.867188 956.015625 290.441406 C 956.101562 291.015625 956.21875 291.585938 956.359375 292.148438 C 956.503906 292.710938 956.671875 293.265625 956.871094 293.8125 C 957.066406 294.359375 957.289062 294.894531 957.539062 295.417969 C 957.789062 295.945312 958.066406 296.457031 958.363281 296.953125 C 958.664062 297.449219 958.988281 297.933594 959.335938 298.398438 C 959.683594 298.863281 960.050781 299.3125 960.441406 299.742188 L 1035.707031 382.136719 L 960.441406 464.175781 C 959.710938 465.023438 959.066406 465.933594 958.507812 466.902344 C 957.949219 467.871094 957.488281 468.882812 957.121094 469.941406 C 956.753906 471 956.492188 472.082031 956.328125 473.1875 C 956.167969 474.292969 956.109375 475.40625 956.160156 476.523438 C 956.207031 477.644531 956.363281 478.746094 956.621094 479.835938 C 956.878906 480.925781 957.234375 481.980469 957.691406 483 C 958.152344 484.019531 958.699219 484.988281 959.339844 485.90625 C 959.980469 486.824219 960.703125 487.671875 961.503906 488.453125 C 961.914062 488.867188 962.34375 489.257812 962.792969 489.628906 C 963.246094 490.003906 963.710938 490.351562 964.195312 490.675781 C 964.679688 491.003906 965.175781 491.304688 965.691406 491.578125 C 966.203125 491.855469 966.730469 492.105469 967.269531 492.332031 C 967.804688 492.554688 968.355469 492.753906 968.910156 492.921875 C 969.46875 493.09375 970.035156 493.234375 970.605469 493.347656 C 971.175781 493.464844 971.753906 493.550781 972.332031 493.605469 C 972.914062 493.664062 973.496094 493.691406 974.078125 493.691406 C 974.660156 493.691406 975.242188 493.664062 975.824219 493.605469 C 976.402344 493.550781 976.980469 493.464844 977.550781 493.347656 C 978.125 493.234375 978.6875 493.09375 979.246094 492.921875 C 979.804688 492.753906 980.351562 492.554688 980.890625 492.332031 C 981.425781 492.105469 981.953125 491.855469 982.46875 491.578125 C 982.980469 491.304688 983.480469 491.003906 983.964844 490.675781 C 984.445312 490.351562 984.914062 490.003906 985.363281 489.628906 C 985.8125 489.257812 986.242188 488.867188 986.652344 488.453125 L 1072.898438 394.539062 C 1073.664062 393.726562 1074.347656 392.847656 1074.945312 391.902344 C 1075.542969 390.960938 1076.050781 389.96875 1076.460938 388.929688 C 1076.871094 387.890625 1077.183594 386.820312 1077.390625 385.722656 C 1077.601562 384.625 1077.707031 383.519531 1077.707031 382.402344 C 1077.707031 381.285156 1077.601562 380.175781 1077.390625 379.078125 C 1077.183594 377.980469 1076.871094 376.914062 1076.460938 375.875 C 1076.050781 374.835938 1075.542969 373.84375 1074.945312 372.898438 C 1074.347656 371.957031 1073.664062 371.078125 1072.898438 370.265625 Z M 1072.898438 370.265625 " fill-opacity="1" fill-rule="nonzero"/></svg>